<?xml version="1.0" encoding="UTF-8"?>
<svg width="687px" height="169px" viewBox="0 0 687 169" version="1.1" xmlns="http://www.w3.org/2000/svg" xmlns:xlink="http://www.w3.org/1999/xlink">
    <title>Group 3</title>
    <g id="Page-1" stroke="none" stroke-width="1" fill="none" fill-rule="evenodd">
        <g id="Ville-#2" transform="translate(-420.000000, -111.000000)">
            <g id="Group-3" transform="translate(420.747845, 111.734375)">
                <g id="soundboard" transform="translate(0.269575, 0.000000)" fill="#FFFFFF" fill-rule="nonzero" font-family="STHeitiSC-Light, Heiti SC" font-size="112.78" font-weight="300">
                    <text id="schedule">
                        <tspan x="0" y="97">schedule</tspan>
                    </text>
                </g>
                <g id="Group" transform="translate(610.251446, 113.765625) scale(-1, 1) translate(-610.251446, -113.765625) translate(534.250737, 69.265625)" fill="#FFD800">
                    <path d="M122.249947,53.4939778 C122.249947,51.1681537 118.603722,46.2552776 113.641318,48.3125878 C108.678913,50.3698981 108.499081,58.0559902 116.377688,61.5496687 C124.256294,65.0433473 125.551088,61.5496687 129.269246,58.0559902 C132.987404,54.5623117 125.551088,43.8327024 116.377688,38.4615616 C107.204287,33.0904208 97.569154,39.0610628 94.6364264,46.2552776 C91.7036988,53.4494924 91.3391735,61.5496687 104.289056,73.5279951 C117.238939,85.5063215 130.405593,66.705379 141.742816,62.8597982 C153.080039,59.0142173 137.112859,32.1000253 125.551088,23.7723201 C113.989318,15.4446148 100.274418,21.4659464 85.7060425,26.2551324 C71.1376673,31.0443184 73.1517911,30.3395389 71.3097715,48.3125878 C69.4677518,66.2856368 77.2179493,77.7176799 85.7060425,85.4269671 C94.1941357,93.1362544 128.747246,85.4269671 141.742816,81.503798 C150.40653,78.888352 153.582658,69.5517452 151.271203,53.4939778 C151.271203,26.0415705 129.078983,3.78699724 101.703493,3.78699724 C74.3280024,3.78699724 52.1356923,26.0415705 52.1356923,53.4939778 C52.1356923,64.3082364 56.4977261,75.8550365 65.2217936,88.1343788 L93.8655769,89 L23.1588469,88.1343788 C16.4950003,85.83502 12.6209874,78.2803301 11.5368082,65.4703091 C9.9105393,46.2552776 8.83689077,28.9714089 14.4408598,33.3506921 C20.0448288,37.7299752 32.1961582,6.80984799 33.9716395,36.1400785 C35.7471207,65.4703091 29.5817827,75.1237406 40.9982292,68.5657823 C48.6091935,64.1938102 52.3216812,59.1698754 52.1356923,53.4939778" id="Oval"></path>
                    <path d="M30.9013643,24.5258395 C31.759343,18.3221184 32.3220891,13.8387755 32.5896025,11.0758108 C33.0447892,6.37449641 39.1232845,5.01299127 39.7151001,2.63990287 C40.1100629,1.05616346 38.7844872,-0.1266118 38.2684207,0.0108707885 C37.407443,0.240239398 32.2080167,5.38258535 30.9013643,8.38877818 C29.7782606,10.9726837 29.0950592,15.9816056 28.8517601,23.4155438 L30.9013643,24.5258395 Z" id="Path-18"></path>
                    <path d="M9.83420953,36.0422825 C10.8953705,28.634169 11.5634831,23.5865963 11.8385472,20.8995644 C12.690961,12.5725497 5.59070586,10.1238491 4.26190094,10.4786787 C3.78179707,10.6068804 3.41846777,12.6802002 4.25670568,13.5444014 C5.64017249,14.9707191 9.97865244,17.6960443 9.63156087,22.3194883 C9.42729109,25.0404702 8.81145592,29.6152991 7.78405535,36.0439749" id="Path-18" transform="translate(7.832478, 23.244857) rotate(-18.000000) translate(-7.832478, -23.244857) "></path>
                </g>
                <g id="tune-your-attention" transform="translate(0.000000, 106.000000)" fill="#FFD223" fill-rule="nonzero" font-family="PTMono-Regular, PT Mono" font-size="55.78" font-weight="normal">
                    <text id="plan-your-week">
                        <tspan x="0" y="49">plan your week</tspan>
                    </text>
                </g>
                <path d="M516.957233,156.818086 C509.694585,154.804813 502.906082,157.476466 495.073444,156.818086 C490.451928,156.42962 482.567585,154.422116 480.216999,152.749023 C478.052742,151.208556 482.240608,153.10146 492.780597,158.427734 C507.893831,157.66663 518.865822,157.130081 525.696571,156.818086 C560.667865,155.220773 587.075849,156.818086 605.135266,156.818086 C628.911793,158.4154 641.860587,157.616743 643.981647,154.422116" id="Line-7" stroke="#FFD800" stroke-width="2" fill="#FFD800" stroke-linecap="square"></path>
            </g>
        </g>
    </g>
</svg>